# Blender 4.5.3 LTS
# www.blender.org
mtllib Mercedes Benz Camper van.mtl
o Cube.001
v -0.269226 0.164169 0.651505
v -0.269226 0.427721 0.651505
v -0.269226 0.164169 -1.036876
v -0.269226 0.427721 -1.036876
v 0.254182 0.164169 0.651505
v 0.254182 0.427721 0.651505
v 0.254182 0.164169 -1.036876
v 0.254182 0.427721 -1.036876
v 0.374713 0.918489 -0.397384
v 0.404499 0.108909 -0.402178
v 0.375641 0.918489 -0.079587
v 0.405501 0.108909 -0.059141
v -0.375687 0.918489 -0.395193
v -0.405501 0.108909 -0.399814
v -0.374759 0.918489 -0.077396
v -0.404499 0.108909 -0.056776
v 0.404289 0.108909 -0.474267
v -0.405711 0.108909 -0.471902
v 0.374518 0.918489 -0.464168
v -0.375882 0.918489 -0.461977
v 0.404208 0.227644 -0.501830
v -0.405792 0.227644 -0.499465
v 0.374443 0.918489 -0.489703
v -0.375956 0.918489 -0.487512
v 0.403626 0.227644 -0.701134
v -0.406373 0.227644 -0.698769
v 0.373904 0.918489 -0.674342
v -0.376495 0.918489 -0.672151
v 0.403496 0.108909 -0.745659
v -0.406503 0.108909 -0.743294
v 0.373784 0.918489 -0.715591
v -0.376616 0.918489 -0.713400
v 0.401992 0.174996 -1.260880
v -0.408007 0.174996 -1.258516
v 0.372426 0.857040 -1.180575
v -0.377973 0.857040 -1.178385
v -0.377565 0.921269 -1.038482
v -0.407565 0.141952 -1.106918
v 0.402435 0.141952 -1.109282
v 0.372835 0.921269 -1.040673
v -0.403175 0.108909 0.396958
v -0.373532 0.918489 0.342952
v 0.376868 0.918489 0.340761
v 0.406825 0.108909 0.394593
v -0.402945 0.227644 0.475407
v -0.373320 0.808336 0.415629
v 0.377080 0.808336 0.413438
v 0.407054 0.227644 0.473042
v -0.402457 0.227644 0.642907
v -0.383574 0.817113 0.581494
v 0.397588 0.817572 0.579266
v 0.407543 0.227644 0.640542
v -0.365051 0.136202 0.650184
v -0.364810 0.446365 0.732943
v 0.370423 0.446365 0.730796
v 0.370181 0.136202 0.648038
v 0.404499 0.513911 -0.402178
v -0.404499 0.513911 -0.056776
v 0.405501 0.513911 -0.059141
v -0.405501 0.513911 -0.399814
v 0.404289 0.513911 -0.474267
v -0.405711 0.513911 -0.471902
v 0.404208 0.573278 -0.501830
v -0.405792 0.573278 -0.499465
v 0.403626 0.573278 -0.701134
v -0.406373 0.573278 -0.698769
v 0.403496 0.513911 -0.745659
v -0.406503 0.513911 -0.743294
v 0.401978 0.514153 -1.265705
v -0.408022 0.514153 -1.263340
v 0.402453 0.531933 -1.102922
v -0.407546 0.531933 -1.100557
v -0.403175 0.513911 0.396958
v 0.406825 0.513911 0.394593
v -0.402945 0.573278 0.475407
v 0.407054 0.573278 0.473042
v -0.402457 0.573278 0.642907
v 0.407543 0.573278 0.640542
v -0.364930 0.291283 0.691564
v 0.370302 0.291283 0.689417
v 0.395798 0.484339 0.655957
v 0.391173 0.485830 0.652894
v -0.376347 0.487262 0.654666
v -0.402457 0.502263 0.642907
v -0.392722 0.500126 0.655529
v -0.402601 0.496591 0.593418
vn -1.0000 -0.0000 -0.0000
vn -0.0000 -0.0000 -1.0000
vn 1.0000 -0.0000 -0.0000
vn -0.0000 -0.0000 1.0000
vn -0.0000 -1.0000 -0.0000
vn -0.0000 1.0000 -0.0000
vn -1.0000 -0.0000 0.0029
vn -0.9973 0.0735 0.0029
vn 0.9973 0.0735 -0.0029
vn -0.9931 0.0765 0.0884
vn 1.0000 -0.0000 -0.0029
vn -0.0028 -0.2261 -0.9741
vn -0.9963 0.0860 0.0029
vn -0.9961 0.0857 -0.0203
vn -0.9950 0.0834 -0.0549
vn 0.0027 -0.3511 0.9363
vn -0.0028 0.2407 -0.9706
vn -0.0006 -0.9771 -0.2130
vn -0.0012 0.9088 -0.4172
vn -0.0000 1.0000 0.0086
vn -0.0003 -0.9959 -0.0905
vn -0.9972 0.0746 0.0052
vn 0.0024 0.5507 0.8347
vn 0.0024 -0.5513 0.8343
vn 0.9947 0.0986 0.0302
vn 0.0027 0.2166 0.9763
vn 0.9957 0.0667 -0.0646
vn -0.0005 0.9985 -0.0542
vn 0.0028 -0.2578 0.9662
vn -0.7919 -0.0000 0.6107
vn -0.0029 -0.0805 -0.9967
vn -0.4299 0.2047 0.8794
vn 0.7593 -0.0538 0.6486
vn 0.2734 0.2113 0.9384
vn -0.9952 0.0928 -0.0316
vn -0.9945 0.0986 0.0360
vn 0.9972 0.0746 -0.0006
vn 0.9960 0.0857 -0.0261
vn -0.0029 -0.0142 -0.9999
vn 0.9963 0.0860 -0.0029
vn 0.9947 0.0834 -0.0607
vn 0.9936 0.0765 0.0826
vn 0.9529 -0.0460 0.2998
vn 0.0020 0.8891 0.4576
vn -0.9383 0.0104 0.3455
vn -0.7539 -0.0560 0.6546
vt 0.628524 0.565954
vt 0.639863 0.565954
vt 0.639863 0.577293
vt 0.628524 0.577293
vt 0.639863 0.588632
vt 0.628524 0.588632
vt 0.639863 0.599971
vt 0.628524 0.599971
vt 0.639863 0.611310
vt 0.628524 0.611310
vt 0.617185 0.588632
vt 0.617185 0.599971
vt 0.651202 0.588632
vt 0.651202 0.599971
vt 0.636463 0.502725
vt 0.600402 0.498874
vt 0.603833 0.491536
vt 0.640683 0.495568
vt 0.202544 0.488818
vt 0.203973 0.272425
vt 0.115645 0.268029
vt 0.114215 0.484422
vt 0.205129 0.705185
vt 0.266995 0.708264
vt 0.269323 0.492141
vt 0.629850 0.596795
vt 0.626297 0.588273
vt 0.627647 0.583952
vt 0.631208 0.592627
vt 0.269783 0.492164
vt 0.267421 0.708285
vt 0.205556 0.705206
vt 0.203004 0.488841
vt 0.279996 0.708911
vt 0.283356 0.492840
vt 0.284967 0.709158
vt 0.288512 0.524827
vt 0.629568 0.597662
vt 0.626016 0.589171
vt 0.635600 0.504188
vt 0.599700 0.500374
vt 0.271213 0.275771
vt 0.285246 0.276470
vt 0.283817 0.492863
vt 0.599434 0.500944
vt 0.635272 0.504744
vt 0.632937 0.508704
vt 0.597536 0.505001
vt 0.629367 0.597719
vt 0.625886 0.589405
vt 0.290193 0.340177
vt 0.288973 0.524850
vt 0.327771 0.526781
vt 0.328991 0.342108
vt 0.338078 0.279099
vt 0.336649 0.495492
vt 0.320911 0.710947
vt 0.327311 0.526758
vt 0.628609 0.600050
vt 0.625132 0.591819
vt 0.405673 0.508560
vt 0.392215 0.715982
vt 0.426635 0.683019
vt 0.444384 0.500638
vt 0.328940 0.711347
vt 0.336188 0.495469
vt 0.628514 0.600896
vt 0.624968 0.592522
vt 0.632424 0.509575
vt 0.597119 0.505894
vt 0.713330 0.428939
vt 0.707385 0.646829
vt 0.565900 0.646829
vt 0.560054 0.420451
vt 0.623594 0.596869
vt 0.627112 0.605046
vt 0.626534 0.606669
vt 0.623039 0.598596
vt 0.707305 0.689234
vt 0.565819 0.689234
vt 0.406133 0.508583
vt 0.408748 0.300277
vt 0.445102 0.319401
vt 0.444844 0.500661
vt 0.628487 0.516293
vt 0.593907 0.512771
vt 0.951959 0.791916
vt 0.856324 0.789091
vt 0.818932 0.717153
vt 0.951695 0.710714
vt 0.629471 0.578116
vt 0.633041 0.586999
vt 0.608626 0.481287
vt 0.646573 0.485579
vt 0.123727 0.701133
vt 0.114675 0.484445
vt 0.633188 0.585974
vt 0.629687 0.577237
vt 0.630360 0.575084
vt 0.633864 0.583897
vt 0.099954 0.330709
vt 0.098734 0.515382
vt 0.109968 0.641574
vt 0.099194 0.515405
vt 0.951761 0.710708
vt 0.818998 0.717147
vt 0.804372 0.448362
vt 0.950552 0.425249
vt 0.079760 0.640071
vt 0.066587 0.513782
vt 0.076031 0.473264
vt 0.066377 0.475815
vt 0.066127 0.513759
vt 0.920168 0.270314
vt 0.950366 0.381296
vt 0.802024 0.405206
vt 0.795147 0.317806
vt 0.063928 0.474551
vt 0.125000 0.750000
vt 0.375000 0.750000
vt 0.053507 0.471112
vt 0.063900 0.466112
vt 0.067807 0.329109
vt 0.058068 0.362638
vt 0.066671 0.280179
vt 0.079333 0.640050
vt 0.053237 0.472050
vt 0.928327 0.145016
vt 0.805761 0.213562
vt 0.109541 0.641553
vt 0.100414 0.330732
vt 0.116105 0.268052
vt 0.123300 0.701112
vt 0.204434 0.272448
vt 0.337618 0.279076
vt 0.408288 0.300254
vt 0.329367 0.711368
vt 0.392641 0.716003
vt 0.427061 0.683041
vt 0.709461 0.209267
vt 0.560051 0.196534
vt 0.328531 0.342085
vt 0.444642 0.319378
vt 0.289733 0.340154
vt 0.285393 0.709179
vt 0.321337 0.710968
vt 0.280422 0.708932
vt 0.284786 0.276447
vt 0.270752 0.275748
vt 0.049465 0.445097
vt 0.057650 0.362617
vt 0.049047 0.445076
vt 0.067347 0.329086
vt 0.066253 0.280158
s 0
usemtl Material.001
f 1/1/1 2/2/1 4/3/1 3/4/1
f 3/4/2 4/3/2 8/5/2 7/6/2
f 7/6/3 8/5/3 6/7/3 5/8/3
f 5/8/4 6/7/4 2/9/4 1/10/4
f 3/11/5 7/6/5 5/8/5 1/12/5
f 8/5/6 4/13/6 2/14/6 6/7/6
usemtl Material
f 9/15/6 13/16/6 15/17/6 11/18/6
f 58/19/7 16/20/7 41/21/7 73/22/7
f 58/19/8 15/23/8 13/24/8 60/25/8
f 14/26/5 10/27/5 12/28/5 16/29/5
f 57/30/9 9/31/9 11/32/9 59/33/9
f 60/25/8 13/24/8 20/34/8 62/35/8
f 62/35/10 20/34/10 24/36/10 64/37/10
f 10/27/5 14/26/5 18/38/5 17/39/5
f 13/16/6 9/15/6 19/40/6 20/41/6
f 57/30/11 10/42/11 17/43/11 61/44/11
f 24/45/6 23/46/6 27/47/6 28/48/6
f 17/39/12 18/38/12 22/49/12 21/50/12
f 20/41/6 19/40/6 23/46/6 24/45/6
f 61/44/11 17/43/11 21/51/11 63/52/11
f 65/53/11 25/54/11 29/55/11 67/56/11
f 63/52/11 21/51/11 25/54/11 65/53/11
f 64/37/13 24/36/13 28/57/13 66/58/13
f 21/50/5 22/49/5 26/59/5 25/60/5
f 72/61/14 37/62/14 36/63/14 70/64/14
f 66/58/15 28/57/15 32/65/15 68/66/15
f 25/60/16 26/59/16 30/67/16 29/68/16
f 28/48/6 27/47/6 31/69/6 32/70/6
f 70/71/17 36/72/17 35/73/17 69/74/17
f 39/75/18 38/76/18 34/77/18 33/78/18
f 37/79/19 40/80/19 35/73/19 36/72/19
f 71/81/11 39/82/11 33/83/11 69/84/11
f 67/56/11 29/55/11 39/82/11 71/81/11
f 32/70/20 31/69/20 40/85/20 37/86/20
f 29/68/21 30/67/21 38/76/21 39/75/21
f 68/66/22 32/65/22 37/62/22 72/61/22
f 43/87/23 42/88/23 46/89/23 47/90/23
f 16/29/5 12/28/5 44/91/5 41/92/5
f 11/18/6 15/17/6 42/93/6 43/94/6
f 59/33/9 11/32/9 43/95/9 74/96/9
f 45/97/5 48/98/5 52/99/5 49/100/5
f 73/22/7 41/21/7 45/101/7 75/102/7
f 41/92/24 44/91/24 48/98/24 45/97/24
f 74/96/25 43/95/25 47/103/25 76/104/25
f 51/105/26 50/106/26 83/107/26 82/108/26
f 76/104/27 47/103/27 51/109/27 78/110/27
f 47/90/28 46/89/28 50/106/28 51/105/28
f 75/102/7 86/111/7 84/112/7 77/113/7
f 80/114/29 55/115/29 54/116/29 79/117/29
f 77/113/30 84/112/30 85/118/30
f 49/119/31 52/120/31 56/120/31 53/119/31
f 78/110/32 51/109/32 82/121/32 81/122/32
f 52/123/33 78/110/33 81/122/33 80/124/33 56/125/33
f 50/126/34 77/113/34 85/118/34 83/127/34
f 56/128/29 80/114/29 79/117/29 53/129/29
f 46/130/35 75/102/35 77/113/35 50/126/35
f 48/131/11 76/104/11 78/110/11 52/123/11
f 44/132/11 74/96/11 76/104/11 48/131/11
f 42/133/36 73/22/36 75/102/36 46/130/36
f 12/134/11 59/33/11 74/96/11 44/132/11
f 30/135/7 68/66/7 72/61/7 38/136/7
f 31/137/37 67/56/37 71/81/37 40/138/37
f 40/138/38 71/81/38 69/84/38 35/139/38
f 34/140/39 70/71/39 69/74/39 33/141/39
f 26/142/7 66/58/7 68/66/7 30/135/7
f 38/136/7 72/61/7 70/64/7 34/143/7
f 22/144/7 64/37/7 66/58/7 26/142/7
f 23/145/40 63/52/40 65/53/40 27/146/40
f 27/146/41 65/53/41 67/56/41 31/137/41
f 19/147/42 61/44/42 63/52/42 23/145/42
f 9/31/9 57/30/9 61/44/9 19/147/9
f 18/148/7 62/35/7 64/37/7 22/144/7
f 14/149/7 60/25/7 62/35/7 18/148/7
f 10/42/11 57/30/11 59/33/11 12/134/11
f 16/20/7 58/19/7 60/25/7 14/149/7
f 15/23/8 58/19/8 73/22/8 42/133/8
f 81/122/43 82/121/43 55/150/43 80/124/43
f 82/108/44 83/107/44 54/116/44 55/115/44
f 83/127/45 85/118/45 79/151/45 54/152/45
f 85/118/46 84/112/46 49/153/46 53/154/46 79/151/46
f 84/112/7 86/111/7 75/102/7 45/101/7 49/153/7
o Cylinder
v 0.296294 0.015950 -0.622380
v 0.376955 0.016102 -0.623480
v 0.296597 0.015074 -0.600286
v 0.377258 0.015226 -0.601385
v 0.296888 0.018525 -0.578445
v 0.377549 0.018677 -0.579544
v 0.297157 0.026171 -0.557697
v 0.377817 0.026324 -0.558796
v 0.297392 0.037719 -0.538839
v 0.378053 0.037871 -0.539938
v 0.297585 0.052724 -0.522596
v 0.378246 0.052876 -0.523695
v 0.297728 0.070609 -0.509592
v 0.378389 0.070762 -0.510691
v 0.297817 0.090689 -0.500327
v 0.378477 0.090841 -0.501426
v 0.297846 0.112189 -0.495157
v 0.378507 0.112342 -0.496256
v 0.297817 0.134286 -0.494280
v 0.378477 0.134438 -0.495379
v 0.297728 0.156129 -0.497730
v 0.378389 0.156281 -0.498830
v 0.297585 0.176878 -0.505375
v 0.378246 0.177031 -0.506475
v 0.297392 0.195738 -0.516921
v 0.378053 0.195890 -0.518021
v 0.297157 0.211982 -0.531925
v 0.377817 0.212134 -0.533024
v 0.296888 0.224987 -0.549808
v 0.377549 0.225139 -0.550907
v 0.296597 0.234252 -0.569885
v 0.377258 0.234405 -0.570985
v 0.296294 0.239422 -0.591384
v 0.376955 0.239575 -0.592483
v 0.295992 0.240299 -0.613478
v 0.376652 0.240451 -0.614578
v 0.295701 0.236847 -0.635319
v 0.376361 0.237000 -0.636419
v 0.295432 0.229201 -0.656067
v 0.376093 0.229353 -0.657167
v 0.295197 0.217653 -0.674925
v 0.375858 0.217806 -0.676025
v 0.295004 0.202648 -0.691168
v 0.375665 0.202801 -0.692268
v 0.294861 0.184763 -0.704172
v 0.375521 0.184915 -0.705272
v 0.294772 0.164684 -0.713438
v 0.375433 0.164836 -0.714537
v 0.294743 0.143183 -0.718608
v 0.375403 0.143335 -0.719707
v 0.294772 0.121086 -0.719485
v 0.375433 0.121239 -0.720584
v 0.294861 0.099243 -0.716034
v 0.375521 0.099396 -0.717133
v 0.295004 0.078494 -0.708389
v 0.375665 0.078646 -0.709488
v 0.295197 0.059634 -0.696843
v 0.375858 0.059787 -0.697942
v 0.295432 0.043390 -0.681840
v 0.376093 0.043543 -0.682939
v 0.295701 0.030386 -0.663956
v 0.376361 0.030538 -0.665055
v 0.295992 0.021120 -0.643879
v 0.376652 0.021273 -0.644978
v 0.336625 0.005049 -0.624453
v 0.336957 0.004087 -0.600188
v 0.337277 0.007877 -0.576201
v 0.337572 0.016275 -0.553415
v 0.337830 0.028957 -0.532704
v 0.338042 0.045436 -0.514865
v 0.338199 0.065078 -0.500584
v 0.338296 0.087130 -0.490408
v 0.338329 0.110743 -0.484730
v 0.338296 0.135010 -0.483767
v 0.338199 0.158999 -0.487557
v 0.338042 0.181787 -0.495953
v 0.337830 0.202500 -0.508633
v 0.337572 0.220340 -0.525110
v 0.337277 0.234622 -0.544751
v 0.336957 0.244798 -0.566800
v 0.336625 0.250476 -0.590411
v 0.336292 0.251438 -0.614676
v 0.335973 0.247648 -0.638663
v 0.335678 0.239250 -0.661449
v 0.335420 0.226568 -0.682160
v 0.335208 0.210089 -0.699998
v 0.335050 0.190446 -0.714280
v 0.334953 0.168395 -0.724455
v 0.334920 0.144781 -0.730134
v 0.334953 0.120514 -0.731097
v 0.335050 0.096525 -0.727307
v 0.335208 0.073737 -0.718911
v 0.335420 0.053025 -0.706231
v 0.335678 0.035185 -0.689753
v 0.335973 0.020903 -0.670113
v 0.336292 0.010727 -0.648063
vn 0.2650 -0.9633 -0.0418
vn 0.2676 -0.9523 0.1469
vn 0.2700 -0.9046 0.3299
vn 0.2721 -0.8221 0.5000
vn 0.2740 -0.7081 0.6508
vn 0.2754 -0.5668 0.7765
vn 0.2764 -0.4037 0.8722
vn 0.2769 -0.2250 0.9342
vn 0.2769 -0.0377 0.9601
vn 0.2764 0.1510 0.9491
vn 0.2754 0.3340 0.9014
vn 0.2740 0.5042 0.8190
vn 0.2721 0.6550 0.7049
vn 0.2700 0.7807 0.5636
vn 0.2676 0.8763 0.4005
vn 0.2650 0.9384 0.2219
vn 0.2624 0.9643 0.0346
vn 0.2599 0.9533 -0.1541
vn 0.2575 0.9056 -0.3371
vn 0.2553 0.8231 -0.5072
vn 0.2535 0.7091 -0.6580
vn 0.2520 0.5678 -0.7837
vn 0.2510 0.4047 -0.8793
vn 0.2505 0.2260 -0.9414
vn 0.2505 0.0387 -0.9673
vn 0.2510 -0.1500 -0.9563
vn 0.2520 -0.3330 -0.9086
vn 0.2535 -0.5032 -0.8262
vn 0.2553 -0.6540 -0.7121
vn 0.2575 -0.7797 -0.5708
vn 0.9999 0.0019 -0.0136
vn 0.2599 -0.8753 -0.4077
vn 0.2624 -0.9374 -0.2291
vn -0.9999 -0.0019 0.0136
vn -0.2650 -0.9384 -0.2219
vn -0.2676 -0.8763 -0.4005
vn -0.2700 -0.7807 -0.5636
vn -0.2721 -0.6550 -0.7049
vn -0.2740 -0.5042 -0.8190
vn -0.2754 -0.3340 -0.9014
vn -0.2764 -0.1510 -0.9491
vn -0.2769 0.0377 -0.9601
vn -0.2769 0.2250 -0.9342
vn -0.2764 0.4037 -0.8722
vn -0.2754 0.5668 -0.7765
vn -0.2740 0.7081 -0.6508
vn -0.2721 0.8221 -0.5000
vn -0.2700 0.9046 -0.3299
vn -0.2676 0.9523 -0.1469
vn -0.2650 0.9633 0.0418
vn -0.2624 0.9374 0.2291
vn -0.2599 0.8753 0.4077
vn -0.2575 0.7797 0.5708
vn -0.2553 0.6540 0.7121
vn -0.2535 0.5032 0.8262
vn -0.2520 0.3330 0.9086
vn -0.2510 0.1500 0.9563
vn -0.2505 -0.0387 0.9673
vn -0.2505 -0.2260 0.9414
vn -0.2510 -0.4047 0.8793
vn -0.2520 -0.5678 0.7837
vn -0.2535 -0.7091 0.6580
vn -0.2553 -0.8231 0.5072
vn -0.2575 -0.9056 0.3371
vn -0.2599 -0.9533 0.1541
vn -0.2624 -0.9643 -0.0346
vt 0.485622 0.716117
vt 0.501384 0.716018
vt 0.501413 0.722380
vt 0.485651 0.722479
vt 0.501442 0.728742
vt 0.485679 0.728841
vt 0.501470 0.735105
vt 0.485708 0.735203
vt 0.501499 0.741467
vt 0.485737 0.741565
vt 0.501528 0.747829
vt 0.485766 0.747927
vt 0.501557 0.754191
vt 0.485794 0.754289
vt 0.501585 0.760553
vt 0.485823 0.760651
vt 0.501614 0.766915
vt 0.485852 0.767013
vt 0.501643 0.773277
vt 0.485881 0.773376
vt 0.501672 0.779639
vt 0.485910 0.779738
vt 0.501700 0.786001
vt 0.485938 0.786100
vt 0.501729 0.792363
vt 0.485967 0.792462
vt 0.501758 0.798725
vt 0.485996 0.798824
vt 0.501787 0.805087
vt 0.486025 0.805186
vt 0.501815 0.811449
vt 0.486053 0.811548
vt 0.501844 0.817811
vt 0.486082 0.817910
vt 0.501873 0.824174
vt 0.486111 0.824272
vt 0.501902 0.830536
vt 0.486140 0.830634
vt 0.501930 0.836898
vt 0.486169 0.836996
vt 0.501959 0.843260
vt 0.486197 0.843359
vt 0.501988 0.849622
vt 0.486226 0.849721
vt 0.502017 0.855984
vt 0.486255 0.856083
vt 0.502045 0.862346
vt 0.486284 0.862445
vt 0.502074 0.868708
vt 0.486312 0.868807
vt 0.502103 0.875070
vt 0.486341 0.875169
vt 0.502132 0.881432
vt 0.486370 0.881531
vt 0.502161 0.887794
vt 0.486398 0.887893
vt 0.502189 0.894157
vt 0.486427 0.894255
vt 0.502218 0.900519
vt 0.486456 0.900617
vt 0.502247 0.906881
vt 0.486485 0.906979
vt 0.308712 0.218055
vt 0.313017 0.216909
vt 0.317321 0.218055
vt 0.321461 0.221447
vt 0.325275 0.226957
vt 0.328619 0.234371
vt 0.331363 0.243405
vt 0.333402 0.253712
vt 0.334658 0.264897
vt 0.335082 0.276527
vt 0.334658 0.288158
vt 0.333402 0.299342
vt 0.331363 0.309650
vt 0.328619 0.318684
vt 0.325275 0.326098
vt 0.321461 0.331608
vt 0.317321 0.335000
vt 0.313017 0.336146
vt 0.308712 0.335000
vt 0.304573 0.331608
vt 0.300758 0.326098
vt 0.297414 0.318684
vt 0.294670 0.309650
vt 0.292631 0.299342
vt 0.291375 0.288158
vt 0.290951 0.276527
vt 0.291375 0.264897
vt 0.292631 0.253712
vt 0.294670 0.243405
vt 0.297414 0.234371
vt 0.300758 0.226957
vt 0.304573 0.221447
vt 0.502275 0.913243
vt 0.486514 0.913341
vt 0.502304 0.919605
vt 0.486542 0.919704
vt 0.318571 0.233333
vt 0.319262 0.233265
vt 0.319927 0.233063
vt 0.320540 0.232735
vt 0.321078 0.232294
vt 0.321519 0.231757
vt 0.321846 0.231144
vt 0.322048 0.230479
vt 0.322116 0.229787
vt 0.322048 0.229096
vt 0.321846 0.228431
vt 0.321519 0.227818
vt 0.321078 0.227280
vt 0.320540 0.226839
vt 0.319927 0.226512
vt 0.319262 0.226310
vt 0.318571 0.226242
vt 0.317879 0.226310
vt 0.317214 0.226512
vt 0.316601 0.226839
vt 0.316064 0.227280
vt 0.315623 0.227818
vt 0.315295 0.228431
vt 0.315093 0.229096
vt 0.315025 0.229787
vt 0.315093 0.230479
vt 0.315295 0.231144
vt 0.315623 0.231757
vt 0.316064 0.232294
vt 0.316601 0.232735
vt 0.317214 0.233063
vt 0.317879 0.233265
vt 0.470751 0.913440
vt 0.470780 0.919802
vt 0.470723 0.907078
vt 0.470694 0.900716
vt 0.470665 0.894354
vt 0.470636 0.887992
vt 0.470608 0.881630
vt 0.470579 0.875268
vt 0.470550 0.868905
vt 0.470521 0.862543
vt 0.470493 0.856181
vt 0.470464 0.849819
vt 0.470435 0.843457
vt 0.470406 0.837095
vt 0.470378 0.830733
vt 0.470349 0.824371
vt 0.470320 0.818009
vt 0.470291 0.811647
vt 0.470263 0.805285
vt 0.470234 0.798922
vt 0.470205 0.792560
vt 0.470176 0.786198
vt 0.470147 0.779836
vt 0.470119 0.773474
vt 0.470090 0.767112
vt 0.470061 0.760750
vt 0.470032 0.754388
vt 0.470004 0.748026
vt 0.469975 0.741664
vt 0.469946 0.735302
vt 0.469917 0.728940
vt 0.469889 0.722578
vt 0.469860 0.716215
s 0
usemtl Material.002
f 151/155/47 88/156/47 90/157/47 152/158/47
f 152/158/48 90/157/48 92/159/48 153/160/48
f 153/160/49 92/159/49 94/161/49 154/162/49
f 154/162/50 94/161/50 96/163/50 155/164/50
f 155/164/51 96/163/51 98/165/51 156/166/51
f 156/166/52 98/165/52 100/167/52 157/168/52
f 157/168/53 100/167/53 102/169/53 158/170/53
f 158/170/54 102/169/54 104/171/54 159/172/54
f 159/172/55 104/171/55 106/173/55 160/174/55
f 160/174/56 106/173/56 108/175/56 161/176/56
f 161/176/57 108/175/57 110/177/57 162/178/57
f 162/178/58 110/177/58 112/179/58 163/180/58
f 163/180/59 112/179/59 114/181/59 164/182/59
f 164/182/60 114/181/60 116/183/60 165/184/60
f 165/184/61 116/183/61 118/185/61 166/186/61
f 166/186/62 118/185/62 120/187/62 167/188/62
f 167/188/63 120/187/63 122/189/63 168/190/63
f 168/190/64 122/189/64 124/191/64 169/192/64
f 169/192/65 124/191/65 126/193/65 170/194/65
f 170/194/66 126/193/66 128/195/66 171/196/66
f 171/196/67 128/195/67 130/197/67 172/198/67
f 172/198/68 130/197/68 132/199/68 173/200/68
f 173/200/69 132/199/69 134/201/69 174/202/69
f 174/202/70 134/201/70 136/203/70 175/204/70
f 175/204/71 136/203/71 138/205/71 176/206/71
f 176/206/72 138/205/72 140/207/72 177/208/72
f 177/208/73 140/207/73 142/209/73 178/210/73
f 178/210/74 142/209/74 144/211/74 179/212/74
f 179/212/75 144/211/75 146/213/75 180/214/75
f 180/214/76 146/213/76 148/215/76 181/216/76
f 90/217/77 88/218/77 150/219/77 148/220/77 146/221/77 144/222/77 142/223/77 140/224/77 138/225/77 136/226/77 134/227/77 132/228/77 130/229/77 128/230/77 126/231/77 124/232/77 122/233/77 120/234/77 118/235/77 116/236/77 114/237/77 112/238/77 110/239/77 108/240/77 106/241/77 104/242/77 102/243/77 100/244/77 98/245/77 96/246/77 94/247/77 92/248/77
f 181/216/78 148/215/78 150/249/78 182/250/78
f 182/250/79 150/249/79 88/251/79 151/252/79
f 87/253/80 89/254/80 91/255/80 93/256/80 95/257/80 97/258/80 99/259/80 101/260/80 103/261/80 105/262/80 107/263/80 109/264/80 111/265/80 113/266/80 115/267/80 117/268/80 119/269/80 121/270/80 123/271/80 125/272/80 127/273/80 129/274/80 131/275/80 133/276/80 135/277/80 137/278/80 139/279/80 141/280/80 143/281/80 145/282/80 147/283/80 149/284/80
f 149/285/81 182/250/81 151/252/81 87/286/81
f 147/287/82 181/216/82 182/250/82 149/285/82
f 145/288/83 180/214/83 181/216/83 147/287/83
f 143/289/84 179/212/84 180/214/84 145/288/84
f 141/290/85 178/210/85 179/212/85 143/289/85
f 139/291/86 177/208/86 178/210/86 141/290/86
f 137/292/87 176/206/87 177/208/87 139/291/87
f 135/293/88 175/204/88 176/206/88 137/292/88
f 133/294/89 174/202/89 175/204/89 135/293/89
f 131/295/90 173/200/90 174/202/90 133/294/90
f 129/296/91 172/198/91 173/200/91 131/295/91
f 127/297/92 171/196/92 172/198/92 129/296/92
f 125/298/93 170/194/93 171/196/93 127/297/93
f 123/299/94 169/192/94 170/194/94 125/298/94
f 121/300/95 168/190/95 169/192/95 123/299/95
f 119/301/96 167/188/96 168/190/96 121/300/96
f 117/302/97 166/186/97 167/188/97 119/301/97
f 115/303/98 165/184/98 166/186/98 117/302/98
f 113/304/99 164/182/99 165/184/99 115/303/99
f 111/305/100 163/180/100 164/182/100 113/304/100
f 109/306/101 162/178/101 163/180/101 111/305/101
f 107/307/102 161/176/102 162/178/102 109/306/102
f 105/308/103 160/174/103 161/176/103 107/307/103
f 103/309/104 159/172/104 160/174/104 105/308/104
f 101/310/105 158/170/105 159/172/105 103/309/105
f 99/311/106 157/168/106 158/170/106 101/310/106
f 97/312/107 156/166/107 157/168/107 99/311/107
f 95/313/108 155/164/108 156/166/108 97/312/108
f 93/314/109 154/162/109 155/164/109 95/313/109
f 91/315/110 153/160/110 154/162/110 93/314/110
f 89/316/111 152/158/111 153/160/111 91/315/111
f 87/317/112 151/155/112 152/158/112 89/316/112
o Cylinder.001
v -0.306678 0.016097 -0.623445
v -0.382232 0.015955 -0.622415
v -0.306376 0.015221 -0.601351
v -0.381930 0.015078 -0.600321
v -0.306084 0.018673 -0.579510
v -0.381639 0.018530 -0.578480
v -0.305816 0.026319 -0.558762
v -0.381370 0.026176 -0.557732
v -0.305581 0.037867 -0.539904
v -0.381135 0.037724 -0.538875
v -0.305388 0.052872 -0.523662
v -0.380942 0.052729 -0.522632
v -0.305245 0.070757 -0.510658
v -0.380799 0.070614 -0.509628
v -0.305156 0.090836 -0.501393
v -0.380710 0.090694 -0.500363
v -0.305126 0.112337 -0.496222
v -0.380681 0.112194 -0.495193
v -0.305156 0.134434 -0.495346
v -0.380710 0.134291 -0.494316
v -0.305245 0.156276 -0.498796
v -0.380799 0.156134 -0.497766
v -0.305388 0.177026 -0.506441
v -0.380942 0.176883 -0.505411
v -0.305581 0.195886 -0.517987
v -0.381135 0.195743 -0.516957
v -0.305816 0.212130 -0.532990
v -0.381370 0.211987 -0.531960
v -0.306084 0.225134 -0.550873
v -0.381639 0.224991 -0.549844
v -0.306376 0.234400 -0.570950
v -0.381930 0.234257 -0.569920
v -0.306678 0.239570 -0.592449
v -0.382232 0.239427 -0.591419
v -0.306981 0.240446 -0.614543
v -0.382535 0.240303 -0.613513
v -0.307272 0.236995 -0.636383
v -0.382826 0.236852 -0.635354
v -0.307541 0.229348 -0.657131
v -0.383095 0.229206 -0.656102
v -0.307776 0.217801 -0.675989
v -0.383330 0.217658 -0.674959
v -0.307969 0.202796 -0.692232
v -0.383523 0.202653 -0.691202
v -0.308112 0.184910 -0.705236
v -0.383666 0.184767 -0.704206
v -0.308200 0.164831 -0.714501
v -0.383754 0.164688 -0.713471
v -0.308230 0.143330 -0.719671
v -0.383784 0.143187 -0.718641
v -0.308200 0.121234 -0.720548
v -0.383754 0.121091 -0.719518
v -0.308112 0.099391 -0.717097
v -0.383666 0.099248 -0.716068
v -0.307969 0.078641 -0.709452
v -0.383523 0.078498 -0.708423
v -0.307776 0.059782 -0.697906
v -0.383330 0.059639 -0.696877
v -0.307541 0.043538 -0.682904
v -0.383095 0.043395 -0.681874
v -0.307272 0.030533 -0.665020
v -0.382826 0.030390 -0.663990
v -0.306981 0.021268 -0.644943
v -0.382535 0.021125 -0.643914
v -0.344455 0.005049 -0.624453
v -0.344123 0.004087 -0.600188
v -0.343803 0.007877 -0.576201
v -0.343509 0.016275 -0.553415
v -0.343250 0.028957 -0.532705
v -0.343038 0.045436 -0.514866
v -0.342881 0.065079 -0.500585
v -0.342784 0.087130 -0.490410
v -0.342751 0.110743 -0.484731
v -0.342784 0.135011 -0.483769
v -0.342881 0.158999 -0.487558
v -0.343038 0.181788 -0.495954
v -0.343250 0.202500 -0.508634
v -0.343509 0.220340 -0.525111
v -0.343803 0.234622 -0.544751
v -0.344123 0.244798 -0.566801
v -0.344455 0.250476 -0.590411
v -0.344788 0.251438 -0.614676
v -0.345108 0.247648 -0.638662
v -0.345402 0.239250 -0.661448
v -0.345661 0.226568 -0.682159
v -0.345872 0.210089 -0.699997
v -0.346030 0.190446 -0.714279
v -0.346127 0.168394 -0.724454
v -0.346160 0.144781 -0.730132
v -0.346127 0.120514 -0.731095
v -0.346030 0.096525 -0.727306
v -0.345872 0.073737 -0.718910
v -0.345661 0.053025 -0.706230
v -0.345402 0.035185 -0.689753
v -0.345108 0.020903 -0.670112
v -0.344788 0.010727 -0.648063
vn -0.2789 -0.9597 -0.0342
vn -0.2764 -0.9487 0.1536
vn -0.2740 -0.9013 0.3357
vn -0.2718 -0.8192 0.5050
vn -0.2700 -0.7057 0.6551
vn -0.2685 -0.5650 0.7801
vn -0.2676 -0.4027 0.8753
vn -0.2671 -0.2250 0.9371
vn -0.2671 -0.0386 0.9629
vn -0.2676 0.1493 0.9519
vn -0.2685 0.3314 0.9045
vn -0.2700 0.5007 0.8224
vn -0.2718 0.6508 0.7089
vn -0.2740 0.7759 0.5683
vn -0.2764 0.8711 0.4060
vn -0.2789 0.9328 0.2283
vn -0.2815 0.9586 0.0419
vn -0.2840 0.9476 -0.1460
vn -0.2864 0.9002 -0.3281
vn -0.2886 0.8181 -0.4974
vn -0.2904 0.7046 -0.6475
vn -0.2918 0.5640 -0.7725
vn -0.2928 0.4017 -0.8677
vn -0.2933 0.2239 -0.9294
vn -0.2933 0.0375 -0.9553
vn -0.2928 -0.1503 -0.9443
vn -0.2918 -0.3324 -0.8968
vn -0.2904 -0.5018 -0.8148
vn -0.2886 -0.6519 -0.7013
vn -0.2864 -0.7769 -0.5607
vn -0.9999 -0.0019 0.0136
vn -0.2840 -0.8721 -0.3984
vn -0.2815 -0.9339 -0.2206
vn 0.9999 0.0019 -0.0136
vn 0.2789 -0.9328 -0.2283
vn 0.2764 -0.8711 -0.4060
vn 0.2740 -0.7759 -0.5683
vn 0.2718 -0.6508 -0.7089
vn 0.2700 -0.5007 -0.8224
vn 0.2685 -0.3314 -0.9045
vn 0.2676 -0.1493 -0.9519
vn 0.2671 0.0386 -0.9629
vn 0.2671 0.2250 -0.9371
vn 0.2676 0.4027 -0.8753
vn 0.2685 0.5650 -0.7801
vn 0.2700 0.7057 -0.6551
vn 0.2718 0.8192 -0.5050
vn 0.2740 0.9013 -0.3357
vn 0.2764 0.9487 -0.1536
vn 0.2789 0.9597 0.0342
vn 0.2815 0.9339 0.2206
vn 0.2840 0.8721 0.3984
vn 0.2864 0.7769 0.5607
vn 0.2886 0.6519 0.7013
vn 0.2904 0.5018 0.8148
vn 0.2918 0.3324 0.8968
vn 0.2928 0.1503 0.9443
vn 0.2933 -0.0375 0.9553
vn 0.2933 -0.2239 0.9294
vn 0.2928 -0.4017 0.8677
vn 0.2918 -0.5640 0.7725
vn 0.2904 -0.7046 0.6475
vn 0.2886 -0.8181 0.4974
vn 0.2864 -0.9002 0.3281
vn 0.2840 -0.9476 0.1460
vn 0.2815 -0.9586 -0.0419
vt 0.485622 0.716117
vt 0.501384 0.716018
vt 0.501413 0.722380
vt 0.485651 0.722479
vt 0.501442 0.728742
vt 0.485679 0.728841
vt 0.501470 0.735105
vt 0.485708 0.735203
vt 0.501499 0.741467
vt 0.485737 0.741565
vt 0.501528 0.747829
vt 0.485766 0.747927
vt 0.501557 0.754191
vt 0.485794 0.754289
vt 0.501585 0.760553
vt 0.485823 0.760651
vt 0.501614 0.766915
vt 0.485852 0.767013
vt 0.501643 0.773277
vt 0.485881 0.773376
vt 0.501672 0.779639
vt 0.485910 0.779738
vt 0.501700 0.786001
vt 0.485938 0.786100
vt 0.501729 0.792363
vt 0.485967 0.792462
vt 0.501758 0.798725
vt 0.485996 0.798824
vt 0.501787 0.805087
vt 0.486025 0.805186
vt 0.501815 0.811449
vt 0.486053 0.811548
vt 0.501844 0.817811
vt 0.486082 0.817910
vt 0.501873 0.824174
vt 0.486111 0.824272
vt 0.501902 0.830536
vt 0.486140 0.830634
vt 0.501930 0.836898
vt 0.486169 0.836996
vt 0.501959 0.843260
vt 0.486197 0.843359
vt 0.501988 0.849622
vt 0.486226 0.849721
vt 0.502017 0.855984
vt 0.486255 0.856083
vt 0.502045 0.862346
vt 0.486284 0.862445
vt 0.502074 0.868708
vt 0.486312 0.868807
vt 0.502103 0.875070
vt 0.486341 0.875169
vt 0.502132 0.881432
vt 0.486370 0.881531
vt 0.502161 0.887794
vt 0.486398 0.887893
vt 0.502189 0.894157
vt 0.486427 0.894255
vt 0.502218 0.900519
vt 0.486456 0.900617
vt 0.502247 0.906881
vt 0.486485 0.906979
vt 0.308712 0.218055
vt 0.313017 0.216909
vt 0.317321 0.218055
vt 0.321461 0.221447
vt 0.325275 0.226957
vt 0.328619 0.234371
vt 0.331363 0.243405
vt 0.333402 0.253712
vt 0.334658 0.264897
vt 0.335082 0.276527
vt 0.334658 0.288158
vt 0.333402 0.299342
vt 0.331363 0.309650
vt 0.328619 0.318684
vt 0.325275 0.326098
vt 0.321461 0.331608
vt 0.317321 0.335000
vt 0.313017 0.336146
vt 0.308712 0.335000
vt 0.304573 0.331608
vt 0.300758 0.326098
vt 0.297414 0.318684
vt 0.294670 0.309650
vt 0.292631 0.299342
vt 0.291375 0.288158
vt 0.290951 0.276527
vt 0.291375 0.264897
vt 0.292631 0.253712
vt 0.294670 0.243405
vt 0.297414 0.234371
vt 0.300758 0.226957
vt 0.304573 0.221447
vt 0.502275 0.913243
vt 0.486514 0.913341
vt 0.502304 0.919605
vt 0.486542 0.919704
vt 0.318571 0.233333
vt 0.319262 0.233265
vt 0.319927 0.233063
vt 0.320540 0.232735
vt 0.321078 0.232294
vt 0.321519 0.231757
vt 0.321846 0.231144
vt 0.322048 0.230479
vt 0.322116 0.229787
vt 0.322048 0.229096
vt 0.321846 0.228431
vt 0.321519 0.227818
vt 0.321078 0.227280
vt 0.320540 0.226839
vt 0.319927 0.226512
vt 0.319262 0.226310
vt 0.318571 0.226242
vt 0.317879 0.226310
vt 0.317214 0.226512
vt 0.316601 0.226839
vt 0.316064 0.227280
vt 0.315623 0.227818
vt 0.315295 0.228431
vt 0.315093 0.229096
vt 0.315025 0.229787
vt 0.315093 0.230479
vt 0.315295 0.231144
vt 0.315623 0.231757
vt 0.316064 0.232294
vt 0.316601 0.232735
vt 0.317214 0.233063
vt 0.317879 0.233265
vt 0.470751 0.913440
vt 0.470780 0.919802
vt 0.470723 0.907078
vt 0.470694 0.900716
vt 0.470665 0.894354
vt 0.470636 0.887992
vt 0.470608 0.881630
vt 0.470579 0.875268
vt 0.470550 0.868905
vt 0.470521 0.862543
vt 0.470493 0.856181
vt 0.470464 0.849819
vt 0.470435 0.843457
vt 0.470406 0.837095
vt 0.470378 0.830733
vt 0.470349 0.824371
vt 0.470320 0.818009
vt 0.470291 0.811647
vt 0.470263 0.805285
vt 0.470234 0.798922
vt 0.470205 0.792560
vt 0.470176 0.786198
vt 0.470147 0.779836
vt 0.470119 0.773474
vt 0.470090 0.767112
vt 0.470061 0.760750
vt 0.470032 0.754388
vt 0.470004 0.748026
vt 0.469975 0.741664
vt 0.469946 0.735302
vt 0.469917 0.728940
vt 0.469889 0.722578
vt 0.469860 0.716215
s 0
usemtl Material.003
f 247/318/113 248/321/113 186/320/113 184/319/113
f 248/321/114 249/323/114 188/322/114 186/320/114
f 249/323/115 250/325/115 190/324/115 188/322/115
f 250/325/116 251/327/116 192/326/116 190/324/116
f 251/327/117 252/329/117 194/328/117 192/326/117
f 252/329/118 253/331/118 196/330/118 194/328/118
f 253/331/119 254/333/119 198/332/119 196/330/119
f 254/333/120 255/335/120 200/334/120 198/332/120
f 255/335/121 256/337/121 202/336/121 200/334/121
f 256/337/122 257/339/122 204/338/122 202/336/122
f 257/339/123 258/341/123 206/340/123 204/338/123
f 258/341/124 259/343/124 208/342/124 206/340/124
f 259/343/125 260/345/125 210/344/125 208/342/125
f 260/345/126 261/347/126 212/346/126 210/344/126
f 261/347/127 262/349/127 214/348/127 212/346/127
f 262/349/128 263/351/128 216/350/128 214/348/128
f 263/351/129 264/353/129 218/352/129 216/350/129
f 264/353/130 265/355/130 220/354/130 218/352/130
f 265/355/131 266/357/131 222/356/131 220/354/131
f 266/357/132 267/359/132 224/358/132 222/356/132
f 267/359/133 268/361/133 226/360/133 224/358/133
f 268/361/134 269/363/134 228/362/134 226/360/134
f 269/363/135 270/365/135 230/364/135 228/362/135
f 270/365/136 271/367/136 232/366/136 230/364/136
f 271/367/137 272/369/137 234/368/137 232/366/137
f 272/369/138 273/371/138 236/370/138 234/368/138
f 273/371/139 274/373/139 238/372/139 236/370/139
f 274/373/140 275/375/140 240/374/140 238/372/140
f 275/375/141 276/377/141 242/376/141 240/374/141
f 276/377/142 277/379/142 244/378/142 242/376/142
f 186/380/143 188/411/143 190/410/143 192/409/143 194/408/143 196/407/143 198/406/143 200/405/143 202/404/143 204/403/143 206/402/143 208/401/143 210/400/143 212/399/143 214/398/143 216/397/143 218/396/143 220/395/143 222/394/143 224/393/143 226/392/143 228/391/143 230/390/143 232/389/143 234/388/143 236/387/143 238/386/143 240/385/143 242/384/143 244/383/143 246/382/143 184/381/143
f 277/379/144 278/413/144 246/412/144 244/378/144
f 278/413/145 247/415/145 184/414/145 246/412/145
f 183/416/146 245/447/146 243/446/146 241/445/146 239/444/146 237/443/146 235/442/146 233/441/146 231/440/146 229/439/146 227/438/146 225/437/146 223/436/146 221/435/146 219/434/146 217/433/146 215/432/146 213/431/146 211/430/146 209/429/146 207/428/146 205/427/146 203/426/146 201/425/146 199/424/146 197/423/146 195/422/146 193/421/146 191/420/146 189/419/146 187/418/146 185/417/146
f 245/448/147 183/449/147 247/415/147 278/413/147
f 243/450/148 245/448/148 278/413/148 277/379/148
f 241/451/149 243/450/149 277/379/149 276/377/149
f 239/452/150 241/451/150 276/377/150 275/375/150
f 237/453/151 239/452/151 275/375/151 274/373/151
f 235/454/152 237/453/152 274/373/152 273/371/152
f 233/455/153 235/454/153 273/371/153 272/369/153
f 231/456/154 233/455/154 272/369/154 271/367/154
f 229/457/155 231/456/155 271/367/155 270/365/155
f 227/458/156 229/457/156 270/365/156 269/363/156
f 225/459/157 227/458/157 269/363/157 268/361/157
f 223/460/158 225/459/158 268/361/158 267/359/158
f 221/461/159 223/460/159 267/359/159 266/357/159
f 219/462/160 221/461/160 266/357/160 265/355/160
f 217/463/161 219/462/161 265/355/161 264/353/161
f 215/464/162 217/463/162 264/353/162 263/351/162
f 213/465/163 215/464/163 263/351/163 262/349/163
f 211/466/164 213/465/164 262/349/164 261/347/164
f 209/467/165 211/466/165 261/347/165 260/345/165
f 207/468/166 209/467/166 260/345/166 259/343/166
f 205/469/167 207/468/167 259/343/167 258/341/167
f 203/470/168 205/469/168 258/341/168 257/339/168
f 201/471/169 203/470/169 257/339/169 256/337/169
f 199/472/170 201/471/170 256/337/170 255/335/170
f 197/473/171 199/472/171 255/335/171 254/333/171
f 195/474/172 197/473/172 254/333/172 253/331/172
f 193/475/173 195/474/173 253/331/173 252/329/173
f 191/476/174 193/475/174 252/329/174 251/327/174
f 189/477/175 191/476/175 251/327/175 250/325/175
f 187/478/176 189/477/176 250/325/176 249/323/176
f 185/479/177 187/478/177 249/323/177 248/321/177
f 183/480/178 185/479/178 248/321/178 247/318/178
o Cylinder.002
v 0.296294 0.015950 0.505254
v 0.376955 0.016102 0.504155
v 0.296597 0.015074 0.527348
v 0.377258 0.015226 0.526249
v 0.296888 0.018525 0.549189
v 0.377549 0.018677 0.548090
v 0.297157 0.026171 0.569937
v 0.377817 0.026324 0.568838
v 0.297392 0.037719 0.588795
v 0.378053 0.037871 0.587696
v 0.297585 0.052724 0.605038
v 0.378246 0.052876 0.603939
v 0.297728 0.070609 0.618042
v 0.378389 0.070762 0.616943
v 0.297817 0.090689 0.627307
v 0.378477 0.090841 0.626208
v 0.297846 0.112189 0.632478
v 0.378507 0.112342 0.631378
v 0.297817 0.134286 0.633354
v 0.378477 0.134438 0.632255
v 0.297728 0.156129 0.629904
v 0.378389 0.156281 0.628805
v 0.297585 0.176878 0.622259
v 0.378246 0.177031 0.621160
v 0.297392 0.195738 0.610713
v 0.378053 0.195890 0.609614
v 0.297157 0.211982 0.595710
v 0.377817 0.212134 0.594610
v 0.296888 0.224987 0.577826
v 0.377549 0.225139 0.576727
v 0.296597 0.234252 0.557749
v 0.377258 0.234405 0.556650
v 0.296294 0.239422 0.536250
v 0.376955 0.239575 0.535151
v 0.295992 0.240299 0.514156
v 0.376652 0.240451 0.513057
v 0.295701 0.236847 0.492315
v 0.376361 0.237000 0.491216
v 0.295432 0.229201 0.471567
v 0.376093 0.229353 0.470468
v 0.295197 0.217653 0.452709
v 0.375858 0.217806 0.451610
v 0.295004 0.202648 0.436466
v 0.375665 0.202801 0.435367
v 0.294861 0.184763 0.423462
v 0.375521 0.184915 0.422363
v 0.294772 0.164684 0.414197
v 0.375433 0.164836 0.413097
v 0.294743 0.143183 0.409026
v 0.375403 0.143335 0.407927
v 0.294772 0.121086 0.408150
v 0.375433 0.121239 0.407050
v 0.294861 0.099243 0.411600
v 0.375521 0.099396 0.410501
v 0.295004 0.078494 0.419245
v 0.375665 0.078646 0.418146
v 0.295197 0.059634 0.430791
v 0.375858 0.059787 0.429692
v 0.295432 0.043390 0.445794
v 0.376093 0.043543 0.444695
v 0.295701 0.030386 0.463678
v 0.376361 0.030538 0.462579
v 0.295992 0.021120 0.483755
v 0.376652 0.021273 0.482656
v 0.336625 0.005049 0.503182
v 0.336957 0.004087 0.527447
v 0.337277 0.007877 0.551433
v 0.337572 0.016275 0.574220
v 0.337830 0.028957 0.594930
v 0.338042 0.045436 0.612769
v 0.338199 0.065078 0.627051
v 0.338296 0.087130 0.637226
v 0.338329 0.110743 0.642904
v 0.338296 0.135010 0.643867
v 0.338199 0.158999 0.640078
v 0.338042 0.181787 0.631681
v 0.337830 0.202500 0.619001
v 0.337572 0.220340 0.602524
v 0.337277 0.234622 0.582883
v 0.336957 0.244798 0.560834
v 0.336625 0.250476 0.537223
v 0.336292 0.251438 0.512958
v 0.335973 0.247648 0.488971
v 0.335678 0.239250 0.466185
v 0.335420 0.226568 0.445475
v 0.335208 0.210089 0.427636
v 0.335050 0.190446 0.413354
v 0.334953 0.168395 0.403179
v 0.334920 0.144781 0.397501
v 0.334953 0.120514 0.396538
v 0.335050 0.096525 0.400327
v 0.335208 0.073737 0.408723
v 0.335420 0.053025 0.421404
v 0.335678 0.035185 0.437881
v 0.335973 0.020903 0.457521
v 0.336292 0.010727 0.479571
vn 0.2650 -0.9633 -0.0418
vn 0.2676 -0.9523 0.1469
vn 0.2700 -0.9046 0.3299
vn 0.2721 -0.8221 0.5000
vn 0.2740 -0.7081 0.6508
vn 0.2754 -0.5668 0.7765
vn 0.2764 -0.4037 0.8722
vn 0.2769 -0.2250 0.9342
vn 0.2769 -0.0377 0.9601
vn 0.2764 0.1510 0.9491
vn 0.2754 0.3340 0.9014
vn 0.2740 0.5042 0.8190
vn 0.2721 0.6550 0.7049
vn 0.2700 0.7807 0.5636
vn 0.2676 0.8763 0.4005
vn 0.2650 0.9384 0.2219
vn 0.2624 0.9643 0.0346
vn 0.2599 0.9533 -0.1541
vn 0.2575 0.9056 -0.3371
vn 0.2553 0.8231 -0.5072
vn 0.2535 0.7091 -0.6580
vn 0.2520 0.5678 -0.7837
vn 0.2510 0.4047 -0.8793
vn 0.2505 0.2260 -0.9414
vn 0.2505 0.0387 -0.9673
vn 0.2510 -0.1500 -0.9563
vn 0.2520 -0.3330 -0.9086
vn 0.2535 -0.5032 -0.8262
vn 0.2553 -0.6540 -0.7121
vn 0.2575 -0.7797 -0.5708
vn 0.9999 0.0019 -0.0136
vn 0.2599 -0.8753 -0.4077
vn 0.2624 -0.9374 -0.2291
vn -0.9999 -0.0019 0.0136
vn -0.2650 -0.9384 -0.2219
vn -0.2676 -0.8763 -0.4005
vn -0.2700 -0.7807 -0.5636
vn -0.2721 -0.6550 -0.7049
vn -0.2740 -0.5042 -0.8190
vn -0.2754 -0.3340 -0.9014
vn -0.2764 -0.1510 -0.9491
vn -0.2769 0.0377 -0.9601
vn -0.2769 0.2250 -0.9342
vn -0.2764 0.4037 -0.8722
vn -0.2754 0.5668 -0.7765
vn -0.2740 0.7081 -0.6508
vn -0.2721 0.8221 -0.5000
vn -0.2700 0.9046 -0.3299
vn -0.2676 0.9523 -0.1469
vn -0.2650 0.9633 0.0418
vn -0.2624 0.9374 0.2291
vn -0.2599 0.8753 0.4077
vn -0.2575 0.7797 0.5708
vn -0.2553 0.6540 0.7121
vn -0.2535 0.5032 0.8262
vn -0.2520 0.3330 0.9086
vn -0.2510 0.1500 0.9563
vn -0.2505 -0.0387 0.9673
vn -0.2505 -0.2260 0.9414
vn -0.2510 -0.4047 0.8793
vn -0.2520 -0.5678 0.7837
vn -0.2535 -0.7091 0.6580
vn -0.2553 -0.8231 0.5072
vn -0.2575 -0.9056 0.3371
vn -0.2599 -0.9533 0.1541
vn -0.2624 -0.9643 -0.0346
vt 0.485622 0.716117
vt 0.501384 0.716018
vt 0.501413 0.722380
vt 0.485651 0.722479
vt 0.501442 0.728742
vt 0.485679 0.728841
vt 0.501470 0.735105
vt 0.485708 0.735203
vt 0.501499 0.741467
vt 0.485737 0.741565
vt 0.501528 0.747829
vt 0.485766 0.747927
vt 0.501557 0.754191
vt 0.485794 0.754289
vt 0.501585 0.760553
vt 0.485823 0.760651
vt 0.501614 0.766915
vt 0.485852 0.767013
vt 0.501643 0.773277
vt 0.485881 0.773376
vt 0.501672 0.779639
vt 0.485910 0.779738
vt 0.501700 0.786001
vt 0.485938 0.786100
vt 0.501729 0.792363
vt 0.485967 0.792462
vt 0.501758 0.798725
vt 0.485996 0.798824
vt 0.501787 0.805087
vt 0.486025 0.805186
vt 0.501815 0.811449
vt 0.486053 0.811548
vt 0.501844 0.817811
vt 0.486082 0.817910
vt 0.501873 0.824174
vt 0.486111 0.824272
vt 0.501902 0.830536
vt 0.486140 0.830634
vt 0.501930 0.836898
vt 0.486169 0.836996
vt 0.501959 0.843260
vt 0.486197 0.843359
vt 0.501988 0.849622
vt 0.486226 0.849721
vt 0.502017 0.855984
vt 0.486255 0.856083
vt 0.502045 0.862346
vt 0.486284 0.862445
vt 0.502074 0.868708
vt 0.486312 0.868807
vt 0.502103 0.875070
vt 0.486341 0.875169
vt 0.502132 0.881432
vt 0.486370 0.881531
vt 0.502161 0.887794
vt 0.486398 0.887893
vt 0.502189 0.894157
vt 0.486427 0.894255
vt 0.502218 0.900519
vt 0.486456 0.900617
vt 0.502247 0.906881
vt 0.486485 0.906979
vt 0.087781 0.209633
vt 0.092086 0.208487
vt 0.096390 0.209633
vt 0.100529 0.213025
vt 0.104344 0.218535
vt 0.107688 0.225949
vt 0.110432 0.234983
vt 0.112471 0.245291
vt 0.113727 0.256475
vt 0.114151 0.268106
vt 0.113727 0.279736
vt 0.112471 0.290921
vt 0.110432 0.301228
vt 0.107688 0.310262
vt 0.104344 0.317677
vt 0.100529 0.323186
vt 0.096390 0.326578
vt 0.092086 0.327724
vt 0.087781 0.326578
vt 0.083642 0.323186
vt 0.079827 0.317677
vt 0.076483 0.310262
vt 0.073739 0.301228
vt 0.071700 0.290921
vt 0.070444 0.279736
vt 0.070020 0.268106
vt 0.070444 0.256475
vt 0.071700 0.245291
vt 0.073739 0.234983
vt 0.076483 0.225949
vt 0.079827 0.218535
vt 0.083642 0.213025
vt 0.502275 0.913243
vt 0.486514 0.913341
vt 0.502304 0.919605
vt 0.486542 0.919704
vt 0.318571 0.233333
vt 0.319262 0.233265
vt 0.319927 0.233063
vt 0.320540 0.232735
vt 0.321078 0.232294
vt 0.321519 0.231757
vt 0.321846 0.231144
vt 0.322048 0.230479
vt 0.322116 0.229787
vt 0.322048 0.229096
vt 0.321846 0.228431
vt 0.321519 0.227818
vt 0.321078 0.227280
vt 0.320540 0.226839
vt 0.319927 0.226512
vt 0.319262 0.226310
vt 0.318571 0.226242
vt 0.317879 0.226310
vt 0.317214 0.226512
vt 0.316601 0.226839
vt 0.316064 0.227280
vt 0.315623 0.227818
vt 0.315295 0.228431
vt 0.315093 0.229096
vt 0.315025 0.229787
vt 0.315093 0.230479
vt 0.315295 0.231144
vt 0.315623 0.231757
vt 0.316064 0.232294
vt 0.316601 0.232735
vt 0.317214 0.233063
vt 0.317879 0.233265
vt 0.470751 0.913440
vt 0.470780 0.919802
vt 0.470723 0.907078
vt 0.470694 0.900716
vt 0.470665 0.894354
vt 0.470636 0.887992
vt 0.470608 0.881630
vt 0.470579 0.875268
vt 0.470550 0.868905
vt 0.470521 0.862543
vt 0.470493 0.856181
vt 0.470464 0.849819
vt 0.470435 0.843457
vt 0.470406 0.837095
vt 0.470378 0.830733
vt 0.470349 0.824371
vt 0.470320 0.818009
vt 0.470291 0.811647
vt 0.470263 0.805285
vt 0.470234 0.798922
vt 0.470205 0.792560
vt 0.470176 0.786198
vt 0.470147 0.779836
vt 0.470119 0.773474
vt 0.470090 0.767112
vt 0.470061 0.760750
vt 0.470032 0.754388
vt 0.470004 0.748026
vt 0.469975 0.741664
vt 0.469946 0.735302
vt 0.469917 0.728940
vt 0.469889 0.722578
vt 0.469860 0.716215
s 0
usemtl Material.005
f 343/481/179 280/482/179 282/483/179 344/484/179
f 344/484/180 282/483/180 284/485/180 345/486/180
f 345/486/181 284/485/181 286/487/181 346/488/181
f 346/488/182 286/487/182 288/489/182 347/490/182
f 347/490/183 288/489/183 290/491/183 348/492/183
f 348/492/184 290/491/184 292/493/184 349/494/184
f 349/494/185 292/493/185 294/495/185 350/496/185
f 350/496/186 294/495/186 296/497/186 351/498/186
f 351/498/187 296/497/187 298/499/187 352/500/187
f 352/500/188 298/499/188 300/501/188 353/502/188
f 353/502/189 300/501/189 302/503/189 354/504/189
f 354/504/190 302/503/190 304/505/190 355/506/190
f 355/506/191 304/505/191 306/507/191 356/508/191
f 356/508/192 306/507/192 308/509/192 357/510/192
f 357/510/193 308/509/193 310/511/193 358/512/193
f 358/512/194 310/511/194 312/513/194 359/514/194
f 359/514/195 312/513/195 314/515/195 360/516/195
f 360/516/196 314/515/196 316/517/196 361/518/196
f 361/518/197 316/517/197 318/519/197 362/520/197
f 362/520/198 318/519/198 320/521/198 363/522/198
f 363/522/199 320/521/199 322/523/199 364/524/199
f 364/524/200 322/523/200 324/525/200 365/526/200
f 365/526/201 324/525/201 326/527/201 366/528/201
f 366/528/202 326/527/202 328/529/202 367/530/202
f 367/530/203 328/529/203 330/531/203 368/532/203
f 368/532/204 330/531/204 332/533/204 369/534/204
f 369/534/205 332/533/205 334/535/205 370/536/205
f 370/536/206 334/535/206 336/537/206 371/538/206
f 371/538/207 336/537/207 338/539/207 372/540/207
f 372/540/208 338/539/208 340/541/208 373/542/208
f 282/543/209 280/544/209 342/545/209 340/546/209 338/547/209 336/548/209 334/549/209 332/550/209 330/551/209 328/552/209 326/553/209 324/554/209 322/555/209 320/556/209 318/557/209 316/558/209 314/559/209 312/560/209 310/561/209 308/562/209 306/563/209 304/564/209 302/565/209 300/566/209 298/567/209 296/568/209 294/569/209 292/570/209 290/571/209 288/572/209 286/573/209 284/574/209
f 373/542/210 340/541/210 342/575/210 374/576/210
f 374/576/211 342/575/211 280/577/211 343/578/211
f 279/579/212 281/580/212 283/581/212 285/582/212 287/583/212 289/584/212 291/585/212 293/586/212 295/587/212 297/588/212 299/589/212 301/590/212 303/591/212 305/592/212 307/593/212 309/594/212 311/595/212 313/596/212 315/597/212 317/598/212 319/599/212 321/600/212 323/601/212 325/602/212 327/603/212 329/604/212 331/605/212 333/606/212 335/607/212 337/608/212 339/609/212 341/610/212
f 341/611/213 374/576/213 343/578/213 279/612/213
f 339/613/214 373/542/214 374/576/214 341/611/214
f 337/614/215 372/540/215 373/542/215 339/613/215
f 335/615/216 371/538/216 372/540/216 337/614/216
f 333/616/217 370/536/217 371/538/217 335/615/217
f 331/617/218 369/534/218 370/536/218 333/616/218
f 329/618/219 368/532/219 369/534/219 331/617/219
f 327/619/220 367/530/220 368/532/220 329/618/220
f 325/620/221 366/528/221 367/530/221 327/619/221
f 323/621/222 365/526/222 366/528/222 325/620/222
f 321/622/223 364/524/223 365/526/223 323/621/223
f 319/623/224 363/522/224 364/524/224 321/622/224
f 317/624/225 362/520/225 363/522/225 319/623/225
f 315/625/226 361/518/226 362/520/226 317/624/226
f 313/626/227 360/516/227 361/518/227 315/625/227
f 311/627/228 359/514/228 360/516/228 313/626/228
f 309/628/229 358/512/229 359/514/229 311/627/229
f 307/629/230 357/510/230 358/512/230 309/628/230
f 305/630/231 356/508/231 357/510/231 307/629/231
f 303/631/232 355/506/232 356/508/232 305/630/232
f 301/632/233 354/504/233 355/506/233 303/631/233
f 299/633/234 353/502/234 354/504/234 301/632/234
f 297/634/235 352/500/235 353/502/235 299/633/235
f 295/635/236 351/498/236 352/500/236 297/634/236
f 293/636/237 350/496/237 351/498/237 295/635/237
f 291/637/238 349/494/238 350/496/238 293/636/238
f 289/638/239 348/492/239 349/494/239 291/637/239
f 287/639/240 347/490/240 348/492/240 289/638/240
f 285/640/241 346/488/241 347/490/241 287/639/241
f 283/641/242 345/486/242 346/488/242 285/640/242
f 281/642/243 344/484/243 345/486/243 283/641/243
f 279/643/244 343/481/244 344/484/244 281/642/244
o Cylinder.003
v -0.304190 0.016095 0.504207
v -0.377172 0.015957 0.505202
v -0.303887 0.015219 0.526301
v -0.376869 0.015081 0.527296
v -0.303596 0.018670 0.548142
v -0.376578 0.018532 0.549136
v -0.303328 0.026317 0.568889
v -0.376310 0.026179 0.569884
v -0.303093 0.037864 0.587747
v -0.376075 0.037726 0.588741
v -0.302900 0.052869 0.603990
v -0.375882 0.052731 0.604984
v -0.302756 0.070755 0.616993
v -0.375738 0.070617 0.617988
v -0.302668 0.090834 0.626259
v -0.375650 0.090696 0.627253
v -0.302638 0.112335 0.631429
v -0.375620 0.112197 0.632423
v -0.302668 0.134431 0.632306
v -0.375650 0.134293 0.633300
v -0.302756 0.156274 0.628855
v -0.375738 0.156136 0.629850
v -0.302900 0.177024 0.621210
v -0.375882 0.176886 0.622205
v -0.303093 0.195883 0.609664
v -0.376075 0.195745 0.610659
v -0.303328 0.212127 0.594662
v -0.376310 0.211989 0.595656
v -0.303596 0.225132 0.576778
v -0.376578 0.224994 0.577773
v -0.303887 0.234397 0.556702
v -0.376869 0.234259 0.557696
v -0.304190 0.239568 0.535203
v -0.377172 0.239430 0.536198
v -0.304493 0.240444 0.513109
v -0.377475 0.240306 0.514104
v -0.304784 0.236992 0.491269
v -0.377766 0.236854 0.492263
v -0.305052 0.229346 0.470521
v -0.378034 0.229208 0.471516
v -0.305287 0.217798 0.451663
v -0.378270 0.217660 0.452658
v -0.305480 0.202793 0.435420
v -0.378463 0.202655 0.436415
v -0.305624 0.184908 0.422417
v -0.378606 0.184770 0.423411
v -0.305712 0.164829 0.413152
v -0.378694 0.164691 0.414146
v -0.305742 0.143328 0.407981
v -0.378724 0.143190 0.408976
v -0.305712 0.121231 0.407105
v -0.378694 0.121093 0.408099
v -0.305624 0.099388 0.410555
v -0.378606 0.099250 0.411550
v -0.305480 0.078639 0.418200
v -0.378463 0.078501 0.419195
v -0.305287 0.059779 0.429746
v -0.378270 0.059641 0.430740
v -0.305052 0.043535 0.444749
v -0.378034 0.043397 0.445743
v -0.304784 0.030531 0.462632
v -0.377766 0.030393 0.463627
v -0.304493 0.021265 0.482709
v -0.377475 0.021127 0.483703
v -0.340681 0.005049 0.503182
v -0.340349 0.004087 0.527446
v -0.340029 0.007877 0.551432
v -0.339734 0.016275 0.574219
v -0.339476 0.028957 0.594929
v -0.339264 0.045436 0.612767
v -0.339107 0.065079 0.627049
v -0.339010 0.087130 0.637224
v -0.338977 0.110744 0.642902
v -0.339010 0.135011 0.643865
v -0.339107 0.158999 0.640076
v -0.339264 0.181788 0.631680
v -0.339476 0.202500 0.619000
v -0.339734 0.220340 0.602523
v -0.340029 0.234622 0.582883
v -0.340349 0.244798 0.560834
v -0.340681 0.250476 0.537223
v -0.341014 0.251438 0.512958
v -0.341333 0.247648 0.488972
v -0.341628 0.239250 0.466186
v -0.341886 0.226568 0.445476
v -0.342098 0.210089 0.427637
v -0.342256 0.190446 0.413356
v -0.342353 0.168394 0.403181
v -0.342385 0.144781 0.397503
v -0.342353 0.120514 0.396540
v -0.342256 0.096525 0.400329
v -0.342098 0.073737 0.408725
v -0.341886 0.053025 0.421405
v -0.341628 0.035185 0.437882
v -0.341333 0.020903 0.457522
v -0.341014 0.010727 0.479571
vn -0.2880 -0.9570 -0.0340
vn -0.2854 -0.9461 0.1533
vn -0.2830 -0.8987 0.3349
vn -0.2809 -0.8169 0.5037
vn -0.2791 -0.7037 0.6534
vn -0.2776 -0.5635 0.7781
vn -0.2767 -0.4016 0.8730
vn -0.2761 -0.2243 0.9346
vn -0.2761 -0.0385 0.9603
vn -0.2767 0.1488 0.9494
vn -0.2776 0.3304 0.9021
vn -0.2791 0.4993 0.8203
vn -0.2809 0.6490 0.7071
vn -0.2830 0.7737 0.5669
vn -0.2854 0.8686 0.4050
vn -0.2880 0.9302 0.2278
vn -0.2905 0.9559 0.0419
vn -0.2931 0.9450 -0.1454
vn -0.2955 0.8976 -0.3270
vn -0.2976 0.8158 -0.4959
vn -0.2994 0.7026 -0.6455
vn -0.3009 0.5624 -0.7702
vn -0.3019 0.4005 -0.8651
vn -0.3024 0.2233 -0.9267
vn -0.3024 0.0374 -0.9525
vn -0.3019 -0.1499 -0.9415
vn -0.3009 -0.3315 -0.8942
vn -0.2994 -0.5004 -0.8124
vn -0.2976 -0.6501 -0.6992
vn -0.2955 -0.7748 -0.5590
vn -0.9999 -0.0019 0.0136
vn -0.2931 -0.8697 -0.3971
vn -0.2905 -0.9313 -0.2199
vn 0.9999 0.0019 -0.0136
vn 0.2880 -0.9302 -0.2278
vn 0.2854 -0.8686 -0.4050
vn 0.2830 -0.7737 -0.5669
vn 0.2809 -0.6490 -0.7071
vn 0.2791 -0.4993 -0.8203
vn 0.2776 -0.3304 -0.9021
vn 0.2767 -0.1488 -0.9494
vn 0.2761 0.0385 -0.9603
vn 0.2761 0.2243 -0.9346
vn 0.2767 0.4016 -0.8730
vn 0.2776 0.5635 -0.7781
vn 0.2791 0.7037 -0.6534
vn 0.2809 0.8169 -0.5037
vn 0.2830 0.8987 -0.3349
vn 0.2854 0.9461 -0.1533
vn 0.2880 0.9570 0.0340
vn 0.2905 0.9313 0.2199
vn 0.2931 0.8697 0.3971
vn 0.2955 0.7748 0.5590
vn 0.2976 0.6501 0.6992
vn 0.2994 0.5004 0.8124
vn 0.3009 0.3315 0.8942
vn 0.3019 0.1499 0.9415
vn 0.3024 -0.0374 0.9525
vn 0.3024 -0.2233 0.9267
vn 0.3019 -0.4005 0.8651
vn 0.3009 -0.5624 0.7702
vn 0.2994 -0.7026 0.6455
vn 0.2976 -0.8158 0.4959
vn 0.2955 -0.8976 0.3270
vn 0.2931 -0.9450 0.1454
vn 0.2905 -0.9559 -0.0419
vt 0.485622 0.716117
vt 0.501384 0.716018
vt 0.501413 0.722380
vt 0.485651 0.722479
vt 0.501442 0.728742
vt 0.485679 0.728841
vt 0.501470 0.735105
vt 0.485708 0.735203
vt 0.501499 0.741467
vt 0.485737 0.741565
vt 0.501528 0.747829
vt 0.485766 0.747927
vt 0.501557 0.754191
vt 0.485794 0.754289
vt 0.501585 0.760553
vt 0.485823 0.760651
vt 0.501614 0.766915
vt 0.485852 0.767013
vt 0.501643 0.773277
vt 0.485881 0.773376
vt 0.501672 0.779639
vt 0.485910 0.779738
vt 0.501700 0.786001
vt 0.485938 0.786100
vt 0.501729 0.792363
vt 0.485967 0.792462
vt 0.501758 0.798725
vt 0.485996 0.798824
vt 0.501787 0.805087
vt 0.486025 0.805186
vt 0.501815 0.811449
vt 0.486053 0.811548
vt 0.501844 0.817811
vt 0.486082 0.817910
vt 0.501873 0.824174
vt 0.486111 0.824272
vt 0.501902 0.830536
vt 0.486140 0.830634
vt 0.501930 0.836898
vt 0.486169 0.836996
vt 0.501959 0.843260
vt 0.486197 0.843359
vt 0.501988 0.849622
vt 0.486226 0.849721
vt 0.502017 0.855984
vt 0.486255 0.856083
vt 0.502045 0.862346
vt 0.486284 0.862445
vt 0.502074 0.868708
vt 0.486312 0.868807
vt 0.502103 0.875070
vt 0.486341 0.875169
vt 0.502132 0.881432
vt 0.486370 0.881531
vt 0.502161 0.887794
vt 0.486398 0.887893
vt 0.502189 0.894157
vt 0.486427 0.894255
vt 0.502218 0.900519
vt 0.486456 0.900617
vt 0.502247 0.906881
vt 0.486485 0.906979
vt 0.087781 0.209633
vt 0.092086 0.208487
vt 0.096390 0.209633
vt 0.100529 0.213025
vt 0.104344 0.218535
vt 0.107688 0.225949
vt 0.110432 0.234983
vt 0.112471 0.245291
vt 0.113727 0.256475
vt 0.114151 0.268106
vt 0.113727 0.279736
vt 0.112471 0.290921
vt 0.110432 0.301228
vt 0.107688 0.310262
vt 0.104344 0.317677
vt 0.100529 0.323186
vt 0.096390 0.326578
vt 0.092086 0.327724
vt 0.087781 0.326578
vt 0.083642 0.323186
vt 0.079827 0.317677
vt 0.076483 0.310262
vt 0.073739 0.301228
vt 0.071700 0.290921
vt 0.070444 0.279736
vt 0.070020 0.268106
vt 0.070444 0.256475
vt 0.071700 0.245291
vt 0.073739 0.234983
vt 0.076483 0.225949
vt 0.079827 0.218535
vt 0.083642 0.213025
vt 0.502275 0.913243
vt 0.486514 0.913341
vt 0.502304 0.919605
vt 0.486542 0.919704
vt 0.318571 0.233333
vt 0.319262 0.233265
vt 0.319927 0.233063
vt 0.320540 0.232735
vt 0.321078 0.232294
vt 0.321519 0.231757
vt 0.321846 0.231144
vt 0.322048 0.230479
vt 0.322116 0.229787
vt 0.322048 0.229096
vt 0.321846 0.228431
vt 0.321519 0.227818
vt 0.321078 0.227280
vt 0.320540 0.226839
vt 0.319927 0.226512
vt 0.319262 0.226310
vt 0.318571 0.226242
vt 0.317879 0.226310
vt 0.317214 0.226512
vt 0.316601 0.226839
vt 0.316064 0.227280
vt 0.315623 0.227818
vt 0.315295 0.228431
vt 0.315093 0.229096
vt 0.315025 0.229787
vt 0.315093 0.230479
vt 0.315295 0.231144
vt 0.315623 0.231757
vt 0.316064 0.232294
vt 0.316601 0.232735
vt 0.317214 0.233063
vt 0.317879 0.233265
vt 0.470751 0.913440
vt 0.470780 0.919802
vt 0.470723 0.907078
vt 0.470694 0.900716
vt 0.470665 0.894354
vt 0.470636 0.887992
vt 0.470608 0.881630
vt 0.470579 0.875268
vt 0.470550 0.868905
vt 0.470521 0.862543
vt 0.470493 0.856181
vt 0.470464 0.849819
vt 0.470435 0.843457
vt 0.470406 0.837095
vt 0.470378 0.830733
vt 0.470349 0.824371
vt 0.470320 0.818009
vt 0.470291 0.811647
vt 0.470263 0.805285
vt 0.470234 0.798922
vt 0.470205 0.792560
vt 0.470176 0.786198
vt 0.470147 0.779836
vt 0.470119 0.773474
vt 0.470090 0.767112
vt 0.470061 0.760750
vt 0.470032 0.754388
vt 0.470004 0.748026
vt 0.469975 0.741664
vt 0.469946 0.735302
vt 0.469917 0.728940
vt 0.469889 0.722578
vt 0.469860 0.716215
s 0
usemtl Material.006
f 439/644/245 440/647/245 378/646/245 376/645/245
f 440/647/246 441/649/246 380/648/246 378/646/246
f 441/649/247 442/651/247 382/650/247 380/648/247
f 442/651/248 443/653/248 384/652/248 382/650/248
f 443/653/249 444/655/249 386/654/249 384/652/249
f 444/655/250 445/657/250 388/656/250 386/654/250
f 445/657/251 446/659/251 390/658/251 388/656/251
f 446/659/252 447/661/252 392/660/252 390/658/252
f 447/661/253 448/663/253 394/662/253 392/660/253
f 448/663/254 449/665/254 396/664/254 394/662/254
f 449/665/255 450/667/255 398/666/255 396/664/255
f 450/667/256 451/669/256 400/668/256 398/666/256
f 451/669/257 452/671/257 402/670/257 400/668/257
f 452/671/258 453/673/258 404/672/258 402/670/258
f 453/673/259 454/675/259 406/674/259 404/672/259
f 454/675/260 455/677/260 408/676/260 406/674/260
f 455/677/261 456/679/261 410/678/261 408/676/261
f 456/679/262 457/681/262 412/680/262 410/678/262
f 457/681/263 458/683/263 414/682/263 412/680/263
f 458/683/264 459/685/264 416/684/264 414/682/264
f 459/685/265 460/687/265 418/686/265 416/684/265
f 460/687/266 461/689/266 420/688/266 418/686/266
f 461/689/267 462/691/267 422/690/267 420/688/267
f 462/691/268 463/693/268 424/692/268 422/690/268
f 463/693/269 464/695/269 426/694/269 424/692/269
f 464/695/270 465/697/270 428/696/270 426/694/270
f 465/697/271 466/699/271 430/698/271 428/696/271
f 466/699/272 467/701/272 432/700/272 430/698/272
f 467/701/273 468/703/273 434/702/273 432/700/273
f 468/703/274 469/705/274 436/704/274 434/702/274
f 378/706/275 380/737/275 382/736/275 384/735/275 386/734/275 388/733/275 390/732/275 392/731/275 394/730/275 396/729/275 398/728/275 400/727/275 402/726/275 404/725/275 406/724/275 408/723/275 410/722/275 412/721/275 414/720/275 416/719/275 418/718/275 420/717/275 422/716/275 424/715/275 426/714/275 428/713/275 430/712/275 432/711/275 434/710/275 436/709/275 438/708/275 376/707/275
f 469/705/276 470/739/276 438/738/276 436/704/276
f 470/739/277 439/741/277 376/740/277 438/738/277
f 375/742/278 437/773/278 435/772/278 433/771/278 431/770/278 429/769/278 427/768/278 425/767/278 423/766/278 421/765/278 419/764/278 417/763/278 415/762/278 413/761/278 411/760/278 409/759/278 407/758/278 405/757/278 403/756/278 401/755/278 399/754/278 397/753/278 395/752/278 393/751/278 391/750/278 389/749/278 387/748/278 385/747/278 383/746/278 381/745/278 379/744/278 377/743/278
f 437/774/279 375/775/279 439/741/279 470/739/279
f 435/776/280 437/774/280 470/739/280 469/705/280
f 433/777/281 435/776/281 469/705/281 468/703/281
f 431/778/282 433/777/282 468/703/282 467/701/282
f 429/779/283 431/778/283 467/701/283 466/699/283
f 427/780/284 429/779/284 466/699/284 465/697/284
f 425/781/285 427/780/285 465/697/285 464/695/285
f 423/782/286 425/781/286 464/695/286 463/693/286
f 421/783/287 423/782/287 463/693/287 462/691/287
f 419/784/288 421/783/288 462/691/288 461/689/288
f 417/785/289 419/784/289 461/689/289 460/687/289
f 415/786/290 417/785/290 460/687/290 459/685/290
f 413/787/291 415/786/291 459/685/291 458/683/291
f 411/788/292 413/787/292 458/683/292 457/681/292
f 409/789/293 411/788/293 457/681/293 456/679/293
f 407/790/294 409/789/294 456/679/294 455/677/294
f 405/791/295 407/790/295 455/677/295 454/675/295
f 403/792/296 405/791/296 454/675/296 453/673/296
f 401/793/297 403/792/297 453/673/297 452/671/297
f 399/794/298 401/793/298 452/671/298 451/669/298
f 397/795/299 399/794/299 451/669/299 450/667/299
f 395/796/300 397/795/300 450/667/300 449/665/300
f 393/797/301 395/796/301 449/665/301 448/663/301
f 391/798/302 393/797/302 448/663/302 447/661/302
f 389/799/303 391/798/303 447/661/303 446/659/303
f 387/800/304 389/799/304 446/659/304 445/657/304
f 385/801/305 387/800/305 445/657/305 444/655/305
f 383/802/306 385/801/306 444/655/306 443/653/306
f 381/803/307 383/802/307 443/653/307 442/651/307
f 379/804/308 381/803/308 442/651/308 441/649/308
f 377/805/309 379/804/309 441/649/309 440/647/309
f 375/806/310 377/805/310 440/647/310 439/644/310
